<svg style="background:#0f4ccc" xmlns="http://www.w3.org/2000/svg" viewBox="0 0 1024 768" height="768" width="1024"><g style="font-style:normal;font-weight:500;font-size:32px;line-height:1;font-family:&quot;Raleway Medium Alt1&quot;;font-variant-ligatures:none;text-align:center;text-anchor:middle"/><g style="font-style:normal;font-weight:700;font-size:72px;line-height:1;font-family:&quot;Brandmark1 Bold&quot;;font-variant-ligatures:normal;text-align:center;text-anchor:middle" stroke-width="0" stroke-miterlimit="2"><path style="font-style:normal;font-weight:700;font-size:72px;line-height:1;font-family:&quot;Brandmark1 Bold&quot;;font-variant-ligatures:normal;text-align:center;text-anchor:middle" d="M339.908 2.88a22.04 22.04 0 0 0 8.64-1.728c2.664-1.08 5.04-2.736 7.056-4.752 2.016-2.016 3.672-4.392 4.752-7.056 1.152-2.736 1.8-5.616 1.8-8.64V-53.64h-11.304v34.344c0 5.976-4.896 10.872-10.944 10.872-5.976 0-10.872-4.896-10.872-10.872V-53.64h-11.304v34.344c0 3.024.576 5.904 1.728 8.64 1.08 2.664 2.736 5.04 4.752 7.056 2.016 2.016 4.392 3.672 7.056 4.752a22.04 22.04 0 0 0 8.64 1.728z" fill="#85f3dd" transform="translate(-24.382 410.532)"/><path style="font-style:normal;font-weight:700;font-size:72px;line-height:1;font-family:&quot;Brandmark1 Bold&quot;;font-variant-ligatures:normal;text-align:center;text-anchor:middle" d="M399.17-31.608c-3.384-3.456-7.992-5.328-12.816-5.328-2.52 0-5.04.504-7.272 1.512v-2.592h-10.8v17.64c-.072.504-.072 1.08-.072 1.584h.072V2.52h10.8V-19.8c.504-3.6 3.6-6.336 7.272-6.336 4.032 0 7.344 3.312 7.344 7.344V2.52h10.8v-21.312c0-4.824-1.872-9.36-5.328-12.816z" fill="#91f3df" transform="translate(-19.382 410.532)"/><path style="font-style:normal;font-weight:700;font-size:72px;line-height:1;font-family:&quot;Brandmark1 Bold&quot;;font-variant-ligatures:normal;text-align:center;text-anchor:middle" d="M409.046-9.504c1.008 2.448 2.52 4.608 4.392 6.552C415.31-1.08 417.542.36 419.99 1.44c2.52 1.008 5.184 1.584 7.992 1.584 2.736 0 5.4-.576 7.992-1.584 2.376-1.08 4.608-2.52 6.48-4.392 1.872-1.944 3.384-4.104 4.392-6.552a20.368 20.368 0 0 0 1.656-7.992v-34.992l-10.8-3.6v20.52l-1.728-.864c-2.592-1.008-5.256-1.584-7.992-1.584-2.808 0-5.472.576-7.992 1.584-2.448 1.08-4.68 2.52-6.552 4.392-1.872 1.944-3.384 4.104-4.392 6.552-1.08 2.52-1.584 5.256-1.584 7.992 0 2.736.504 5.472 1.584 7.992zm18.936-17.712c5.328 0 9.72 4.392 9.72 9.72s-4.392 9.72-9.72 9.72c-5.4 0-9.72-4.392-9.72-9.72s4.32-9.72 9.72-9.72z" fill="#9df2e2" transform="translate(-14.382 410.532)"/><path style="font-style:normal;font-weight:700;font-size:72px;line-height:1;font-family:&quot;Brandmark1 Bold&quot;;font-variant-ligatures:normal;text-align:center;text-anchor:middle" d="M470.986 2.952c4.752 0 9.288-1.872 12.672-5.256 3.456-3.384 5.328-7.92 5.328-12.744v-22.536h-10.8v22.536c0 4.032-3.24 7.2-7.2 7.2-4.032 0-7.2-3.168-7.2-7.2v-22.536h-10.8v22.536c0 4.824 1.872 9.36 5.256 12.744 3.384 3.384 7.92 5.256 12.744 5.256z" fill="#a9f2e4" transform="translate(-9.382 410.532)"/><path style="font-style:normal;font-weight:700;font-size:72px;line-height:1;font-family:&quot;Brandmark1 Bold&quot;;font-variant-ligatures:normal;text-align:center;text-anchor:middle" d="M512.71 3.024c6.768 0 13.104-3.312 16.92-8.856l-8.928-6.12a9.7 9.7 0 0 1-7.992 4.176c-5.328 0-9.72-4.32-9.72-9.72 0-5.328 4.392-9.72 9.72-9.72 3.168 0 6.12 1.584 7.992 4.176l8.784-6.264c-1.872-2.592-4.32-4.824-7.2-6.336-2.88-1.512-6.264-2.376-9.576-2.376-2.736 0-5.472.576-7.992 1.656-2.448 1.008-4.608 2.52-6.552 4.392-1.872 1.872-3.312 4.104-4.392 6.48-1.008 2.592-1.584 5.256-1.584 7.992 0 2.808.576 5.472 1.584 7.992 1.08 2.448 2.52 4.68 4.392 6.552 1.944 1.872 4.104 3.384 6.552 4.392 2.52 1.08 5.256 1.584 7.992 1.584z" fill="#b5f1e6" transform="translate(-4.382 410.532)"/><path style="font-style:normal;font-weight:700;font-size:72px;line-height:1;font-family:&quot;Brandmark1 Bold&quot;;font-variant-ligatures:normal;text-align:center;text-anchor:middle" d="m547.09-12.384 9.575 14.904h12.672L554.65-20.304l15.624-17.28h-13.896L542.77-22.392v-33.12h-10.872V2.52h10.872V-7.704Z" fill="#c1f1e9" transform="translate(.618 410.532)"/><path style="font-style:normal;font-weight:700;font-size:72px;line-height:1;font-family:&quot;Brandmark1 Bold&quot;;font-variant-ligatures:normal;text-align:center;text-anchor:middle" d="M605.707-38.016h-10.8v2.232a20.246 20.246 0 0 0-9.216-2.232c-2.808 0-5.472.576-7.992 1.656a20.167 20.167 0 0 0-6.552 4.392c-1.872 1.872-3.384 4.032-4.392 6.48a20.552 20.552 0 0 0-1.584 7.992c0 2.808.504 5.472 1.584 7.992a20.167 20.167 0 0 0 4.392 6.552A20.167 20.167 0 0 0 577.7 1.44c2.52 1.08 5.184 1.584 7.992 1.584 3.168 0 6.408-.72 9.216-2.16V2.52h10.8zm-15.12 28.944a9.768 9.768 0 0 1-4.896 1.296 9.68 9.68 0 0 1-9.72-9.72c0-5.328 4.32-9.72 9.72-9.72 1.872 0 3.672.576 5.256 1.584 1.512 1.008 2.736 2.376 3.528 4.032.576 1.296.864 2.664.864 4.176 0 1.656-.432 3.384-1.296 4.824-.792 1.44-2.016 2.664-3.456 3.528z" fill="#cdf0eb" transform="translate(5.618 410.532)"/><path style="font-style:normal;font-weight:700;font-size:72px;line-height:1;font-family:&quot;Brandmark1 Bold&quot;;font-variant-ligatures:normal;text-align:center;text-anchor:middle" d="M651.753-17.568c0-2.736-.504-5.472-1.584-7.992-1.08-2.448-2.52-4.608-4.392-6.48-1.872-1.944-4.104-3.384-6.552-4.392a20.106 20.106 0 0 0-7.992-1.656c-2.736 0-5.472.576-7.992 1.656-.576.216-1.152.504-1.728.792v-20.448l-10.8 3.6v34.92c0 2.808.576 5.472 1.584 7.992 1.08 2.448 2.52 4.68 4.392 6.552 1.944 1.872 4.104 3.384 6.552 4.392 2.52 1.08 5.256 1.584 7.992 1.584 2.736 0 5.472-.504 7.992-1.584a22.274 22.274 0 0 0 6.552-4.392c1.872-1.872 3.312-4.104 4.392-6.552 1.08-2.52 1.584-5.184 1.584-7.992zm-10.8 0c0 5.4-4.392 9.72-9.72 9.72s-9.72-4.32-9.72-9.72c0-5.328 4.392-9.72 9.72-9.72s9.72 4.392 9.72 9.72z" fill="#d9f0ed" transform="translate(10.618 410.532)"/><path style="font-style:normal;font-weight:700;font-size:72px;line-height:1;font-family:&quot;Brandmark1 Bold&quot;;font-variant-ligatures:normal;text-align:center;text-anchor:middle" d="M655.517-51.912V2.52h10.872v-58.032z" fill="#e5eff0" transform="translate(15.618 410.532)"/><path style="font-style:normal;font-weight:700;font-size:72px;line-height:1;font-family:&quot;Brandmark1 Bold&quot;;font-variant-ligatures:normal;text-align:center;text-anchor:middle" d="M689.727 2.736c2.88 0 5.616-.576 8.208-1.656 2.448-1.152 4.68-2.664 6.552-4.68l-7.56-7.2c-1.872 2.016-4.464 3.096-7.2 3.096-3.528 0-6.552-1.8-8.352-4.608h28.656v-5.184c0-5.472-2.088-10.512-5.976-14.4-3.816-3.816-8.928-5.904-14.328-5.904-5.4 0-10.512 2.088-14.328 5.904-3.816 3.888-5.976 8.928-5.976 14.4 0 5.4 2.16 10.512 5.976 14.328 3.816 3.816 8.928 5.904 14.328 5.904zm8.352-25.488h-16.704c1.8-2.736 4.824-4.608 8.352-4.608 3.528 0 6.624 1.872 8.352 4.608z" fill="#f1eff2" transform="translate(20.618 410.532)"/></g></svg>